# AST/ASF file generated using VICON BodyLanguage
# -----------------------------------------------
:version 1.10
:name VICON
:units
  mass 1.0
  length 0.45
  angle deg
:documentation
   .ast/.asf automatically generated from VICON data using
   VICON BodyBuilder and BodyLanguage model FoxedUp or BRILLIANT.MOD
:root
   order TX TY TZ RX RY RZ
   axis XYZ
   position 0 0 0  
   orientation 0 0 0 
:bonedata
  begin
     id 1 
     name lhipjoint
     direction 0.671379 -0.66392 0.329334 
     length 2.38647 
     axis 0 0 0  XYZ
  end
  begin
     id 2 
     name lfemur
     direction 0.34202 -0.939693 0  
     length 6.48179  
     axis 0 0 20  XYZ
    dof rx ry rz
    limits (-160.0 20.0)
           (-70.0 70.0)
           (-60.0 70.0)
  end
  begin
     id 3 
     name ltibia
     direction 0.34202 -0.939693 0   
     length 6.86524   
     axis 0 0 20   XYZ
    dof rx
    limits (-10.0 170.0)
  end
  begin
     id 4 
     name lfoot
     direction 0.204886 -0.562919 0.800715   
     length 1.73031   
     axis -90 7.62852e-016 20   XYZ
    dof rx rz
    limits (-45.0 90.0)
           (-70.0 20.0)
  end
  begin
     id 5 
     name ltoes
     direction 1.53548e-011 -4.21841e-011 1   
     length 0.828161   
     axis -90 7.62852e-016 20   XYZ
    dof rx
    limits (-90.0 20.0)
  end
  begin
     id 6 
     name rhipjoint
     direction -0.662732 -0.670855 0.332775   
     length 2.3618  
     axis 0 0 0  XYZ 
  end
  begin
     id 7 
     name rfemur
     direction -0.34202 -0.939693 0   
     length 6.3025   
     axis 0 0 -20   XYZ
    dof rx ry rz
    limits (-160.0 20.0)
           (-70.0 70.0)
           (-70.0 60.0)
  end
  begin
     id 8 
     name rtibia
     direction -0.34202 -0.939693 0   
     length 6.8732   
     axis 0 0 -20   XYZ
    dof rx
    limits (-10.0 170.0)
 end
 begin
     id 9 
     name rfoot
     direction -0.173856 -0.477665 0.861168   
     length 1.54784  
     axis -90 -7.62852e-016 -20   XYZ
    dof rx rz
    limits (-45.0 90.0)
           (-20.0 70.0)
  end
  begin
     id 10 
     name rtoes
     direction -1.53562e-011 -4.21802e-011 1   
     length 0.759618   
     axis -90 -7.62852e-016 -20   XYZ
    dof rx
    limits (-90.0 20.0)
  end
  begin
     id 11 
     name lowerback
     direction -0.0278357 0.999497 -0.0151789   
     length 1.97203   
     axis 0 0 0   XYZ
    dof rx ry rz
    limits (-20.0 45.0)
           (-30.0 30.0)
           (-30.0 30.0)
  end
  begin
     id 12 
     name upperback
     direction -0.00360622 0.997542 0.0699804   
     length 1.94709   
     axis 0 0 0   XYZ
    dof rx ry rz
    limits (-20.0 45.0)
           (-30.0 30.0)
           (-30.0 30.0)
  end
  begin
     id 13 
     name thorax
     direction 0.00907706 0.997048 0.0762461   
     length 1.95722   
     axis 0 0 0   XYZ
    dof rx ry rz
    limits (-20.0 45.0)
           (-30.0 30.0)
           (-30.0 30.0)
  end
  begin
     id 14 
     name lowerneck
     direction -0.0481835 0.99872 -0.0153927   
     length 1.63078   
     axis 0 0 0   XYZ
    dof rx ry rz
    limits (-20.0 45.0)
           (-30.0 30.0)
           (-30.0 30.0)
  end
  begin
     id 15 
     name upperneck
     direction 0.0859716 0.979226 -0.183644   
     length 1.62591   
     axis 0 0 0   XYZ
    dof rx ry rz
    limits (-20.0 45.0)
           (-30.0 30.0)
           (-30.0 30.0)
  end
  begin
     id 16
     name head
     direction 0.0324821 0.997629 -0.0606773  
     length 1.64811  
     axis 0 0 0   XYZ
    dof rx ry rz
    limits (-20.0 45.0)
           (-30.0 30.0)
           (-30.0 30.0)
  end
  begin
     id 17 
     name lclavicle
     direction 0.939609 0.311019 0.142835  
     length 3.70647  
     axis 0 0 0   XYZ
    dof ry rz
    limits (-20.0 10.0)
           (0.0 20.0)
  end
  begin
     id 18 
     name lhumerus
     direction 1 -4.48963e-011 -1.59838e-027   
     length 4.59207   
     axis 180 -30 -90   XYZ
    dof rx ry rz
    limits (-60.0 90.0)
           (-90.0 90.0)
           (-90.0 90.0)
  end
  begin
     id 19
     name lradius
     direction 1 -4.48957e-011 -1.3483e-026   
     length 2.98109   
     axis 180 -30 -90   XYZ
    dof rx
    limits (-10.0 170.0)
  end
  begin
     id 20
     name lwrist
     direction 1 -4.48954e-011 -3.11579e-026   
     length 1.49055   
     axis 2.00652e-014 90 90   XYZ
    dof ry
    limits (-180.0 0.0)
 end
  begin
     id 21 
     name lhand
     direction 1 -4.4911e-011 -6.23158e-026   
     length 0.480203   
     axis 3.97628e-014 90 90   XYZ
    dof rx rz
    limits (-90.0 90.0)
           (-45.0 45.0)
  end
  begin
     id 22 
     name lfingers
     direction 1 -4.48893e-011 -1.24632e-025   
     length 0.387152   
     axis 7.95256e-014 90 90   XYZ
    dof rx
    limits (0.0 90.0)
  end
  begin
     id 23
     name lthumb
     direction 0.707107 -6.35013e-011 0.707107   
     length 0.555875   
     axis -90 45 2.85299e-015   XYZ
    dof rx rz
    limits (-45.0 45.0)
           (-45.0 45.0)
  end
  begin
     id 24 
     name rclavicle
     direction -0.950396 0.30392 0.0661859   
     length 3.70894  
     axis 0 0 0   XYZ 
    dof ry rz
    limits (-10.0 20.0)
           (-20.0 0.0)
  end
  begin
     id 25 
     name rhumerus
     direction -1 -4.48957e-011 -2.96677e-027  
     length 4.76508   
     axis 180 30 90   XYZ
    dof rx ry rz
    limits (-90.0 60.0)
           (-90.0 90.0)
           (-90.0 90.0)
  end
  begin
     id 26 
     name rradius
     direction -1 -4.48974e-011 -1.44501e-026   
     length 2.78902   
     axis 180 30 90   XYZ
    dof rx
    limits (-10.0 170.0)
  end
  begin
     id 27 
     name rwrist
     direction -1 -4.48978e-011 -3.11579e-026   
     length 1.39451   
     axis 2.00652e-014 -90 -90   XYZ
    dof ry
    limits (-180.0 0.0)
  end
  begin
     id 28
     name rhand
     direction -1 -4.48956e-011 -6.23158e-026   
     length 0.721303   
     axis 3.97628e-014 -90 -90   XYZ
    dof rx rz
    limits (-90.0 90.0)
           (-45.0 45.0)
  end
  begin
     id 29
     name rfingers
     direction -1 -4.4899e-011 -1.24632e-025   
     length 0.581533   
     axis 7.95256e-014 -90 -90   XYZ
    dof rx
    limits (0.0 90.0)
  end
  begin
     id 30
     name rthumb
     direction -0.707107 -6.34911e-011 0.707107   
     length 0.834968   
     axis -90 -45 -2.85299e-015   XYZ
    dof rx rz
    limits (-45.0 45.0)
           (-45.0 45.0)
  end
:hierarchy
  begin
    root lhipjoint rhipjoint lowerback
    lhipjoint lfemur
    lfemur ltibia
    ltibia lfoot
    lfoot ltoes
    rhipjoint rfemur
    rfemur rtibia
    rtibia rfoot
    rfoot rtoes
    lowerback upperback
    upperback thorax
    thorax lowerneck lclavicle rclavicle
    lowerneck upperneck
    upperneck head
    lclavicle lhumerus
    lhumerus lradius
    lradius lwrist
    lwrist lhand lthumb
    lhand lfingers
    rclavicle rhumerus
    rhumerus rradius
    rradius rwrist
    rwrist rhand rthumb
    rhand rfingers
  end

#!OML:ASF I:\salsa\salsa 7_09\Patient 1\Session 1\dancerfemale.ASF
:FULLY-SPECIFIED
:DEGREES
1
root 20.7064 15.8381 -1.19521 -171.913 -85.9526 177.107
lowerback 2.43174 3.74997 0.676623
upperback -4.56553 4.95356 -0.969309
thorax -5.95238 2.37448 -1.74998
lowerneck -5.46442 -3.62562 -7.93332
upperneck 4.60513 -4.91884 10.5201
head 2.71769 -2.27644 4.27331
rclavicle 6.89099e-014 2.18663e-015
rhumerus -44.25 -37.8464 -71.315
rradius 29.5983
rwrist 7.45457
rhand -6.28837 42.2018
rfingers 7.12502
rthumb 19.5551 13.1653
lclavicle 6.89099e-014 2.18663e-015
lhumerus -47.3464 34.336 67.1745
lradius 36.182
lwrist -18.4528
lhand -37.0175 51.7995
lfingers 7.12502
lthumb -10.0915 81.5375
rfemur -12.5837 -4.55413 23.1573
rtibia 27.7205
rfoot -27.1579 -6.73144
rtoes -7.96254
lfemur -28.1627 -4.90076 -17.5885
ltibia 36.0288
lfoot -17.3391 9.42306
ltoes -14.1987
2
root 20.6087 15.8761 -1.15962 -168.517 -85.837 173.862
lowerback 1.63982 3.81519 0.21579
upperback -4.51973 5.01192 -0.960031
thorax -5.48949 2.42976 -1.42779
lowerneck -5.34307 -3.64457 -7.81435
upperneck 4.53757 -4.94806 10.4037
head 2.67434 -2.29634 4.21837
rclavicle -5.76786e-014 2.88238e-015
rhumerus -44.7734 -38.5856 -70.3927
rradius 29.2767
rwrist 7.57033
rhand -6.47927 41.9566
rfingers 7.12502
rthumb 19.3716 12.9015
lclavicle -5.76786e-014 2.88238e-015
lhumerus -48.9404 30.3777 69.5161
lradius 40.7408
lwrist -16.3582
lhand -34.0494 53.6497
lfingers 7.12502
lthumb -7.22729 83.5062
rfemur -11.886 -4.38072 22.7058
rtibia 26.7974
rfoot -26.8867 -7.05102
rtoes -8.85495
lfemur -27.8558 -4.90312 -18.081
ltibia 35.7985
lfoot -17.345 10.24
ltoes -17.9912
3
root 20.5136 15.9024 -1.12189 -165.001 -85.6739 170.465
lowerback 1.12301 3.87011 -0.195523
upperback -4.5996 5.06013 -1.01218
thorax -5.30891 2.46993 -1.22223
lowerneck -5.38387 -3.68601 -7.63737
upperneck 4.75639 -5.02034 10.2358
head 2.74377 -2.33071 4.13237
rclavicle 3.56197e-014 4.17448e-015
rhumerus -45.545 -39.1941 -69.466
rradius 29.019
rwrist 7.62047
rhand -6.73048 41.8149
rfingers 7.12502
rthumb 19.13 12.7357
lclavicle 3.56197e-014 4.17448e-015
lhumerus -49.1383 30.4997 69.3848
lradius 40.4588
lwrist -16.5495
lhand -35.0605 53.436
lfingers 7.12502
lthumb -8.20319 83.2568
rfemur -11.2522 -4.09305 22.2042
rtibia 26.0413
rfoot -26.675 -7.33116
rtoes -9.5911
lfemur -27.6675 -4.86512 -18.6247
ltibia 35.8371
lfoot -17.3121 10.6354
ltoes -19.6891
4
root 20.4189 15.9295 -1.08508 -161.043 -85.6252 166.6
lowerback 0.743069 3.85936 -0.595815
upperback -4.72877 5.02166 -1.08842
thorax -5.25702 2.46388 -1.05567
lowerneck -5.377 -3.74914 -7.55787
upperneck 5.05645 -5.12831 10.1365
head 2.83674 -2.38311 4.08214
rclavicle -5.15536e-014 2.48481e-015
rhumerus -46.3778 -39.6742 -68.5748
rradius 28.7948
rwrist 7.66157
rhand -7.05396 41.6243
rfingers 7.12502
rthumb 18.8189 12.5146
lclavicle -5.15536e-014 2.48481e-015
lhumerus -49.3804 30.6587 69.1494
lradius 40.156
lwrist -16.8367
lhand -34.9101 51.5687
lfingers 7.12502
lthumb -8.05801 81.395
rfemur -10.5018 -3.72117 21.7058
rtibia 25.1184
rfoot -26.4223 -7.79387
rtoes -10.0194
lfemur -27.4641 -4.99359 -19.0983
ltibia 35.9556
lfoot -17.5258 10.5001
ltoes -18.6777
5
root 20.3233 15.9546 -1.05094 -154.888 -85.6913 160.36
lowerback 0.582069 3.91255 -1.21465
upperback -4.87849 5.05622 -1.25246
thorax -5.3632 2.50037 -0.881315
lowerneck -4.98408 -3.87651 -7.41087
upperneck 5.08069 -5.34607 10.2094
head 2.79663 -2.49821 4.07551
rclavicle 1.10077e-014 6.16232e-015
rhumerus -47.6106 -40.304 -67.4232
rradius 28.7139
rwrist 7.59581
rhand -7.45942 41.4264
rfingers 7.12502
rthumb 18.4289 12.2793
lclavicle 1.10077e-014 6.16232e-015
lhumerus -49.4945 30.2697 69.1244
lradius 39.9101
lwrist -17.0564
lhand -34.0974 49.5708
lfingers 7.12502
lthumb -7.27357 79.4258
rfemur -9.62062 -3.21134 21.0774
rtibia 24.4081
rfoot -26.6425 -8.45235
rtoes -9.0269
lfemur -27.0567 -5.12914 -19.7032
ltibia 36.0899
lfoot -17.9641 10.0021
ltoes -17.5551
6
root 20.2289 15.9957 -1.01591 -148.969 -85.6822 154.362
lowerback 0.46917 4.07981 -1.85891
upperback -5.07167 5.23741 -1.46413
thorax -5.54337 2.60969 -0.756776
lowerneck -4.6066 -4.09261 -7.05185
upperneck 5.13671 -5.69167 10.1665
head 2.77047 -2.67587 3.99218
rclavicle 2.07606e-014 1.43125e-014
rhumerus -49.1496 -41.0916 -66.0331
rradius 28.744
rwrist 7.4515
rhand -7.66956 41.2234
rfingers 7.12502
rthumb 18.2268 12.0573
lclavicle 2.07606e-014 1.43125e-014
lhumerus -49.4796 29.3385 69.3888
lradius 39.7315
lwrist -16.9531
lhand -33.7583 48.5771
lfingers 7.12502
lthumb -6.94624 78.4431
rfemur -8.79561 -2.53693 20.4577
rtibia 23.83
rfoot -27.1111 -9.14384
rtoes -7.14831
lfemur -26.813 -4.80867 -20.4527
ltibia 36.2373
lfoot -18.0265 9.64802
ltoes -19.5523
7
root 20.137 15.9991 -0.974973 -144.564 -85.6481 149.976
lowerback 0.167882 4.16382 -2.28571
upperback -5.21112 5.32499 -1.61526
thorax -5.54636 2.66579 -0.666489
lowerneck -4.497 -4.26631 -6.83799
upperneck 5.46033 -5.96677 10.0467
head 2.86254 -2.81182 3.90667
rclavicle -2.46493e-014 -1.0138e-014
rhumerus -50.3363 -41.6047 -64.949
rradius 28.7605
rwrist 7.22067
rhand -7.63773 41.002
rfingers 7.12502
rthumb 18.2574 11.8388
lclavicle -2.46493e-014 -1.0138e-014
lhumerus -49.4894 28.7123 69.5823
lradius 39.5863
lwrist -16.7898
lhand -33.6834 48.7247
lfingers 7.12502
lthumb -6.87398 78.5931
rfemur -8.27507 -1.95942 19.9945
rtibia 23.5446
rfoot -27.3053 -9.99992
rtoes -8.14446
lfemur -26.5033 -4.49479 -21.0725
ltibia 36.24
lfoot -18.2396 9.15869
ltoes -19.7045
8
root 20.0457 15.9979 -0.929466 -139.775 -85.6189 145.192
lowerback -0.199965 4.14538 -2.62352
upperback -5.26158 5.28794 -1.74915
thorax -5.40962 2.65696 -0.590115
lowerneck -4.39197 -4.35683 -6.83266
upperneck 5.70388 -6.11691 10.0528
head 2.93037 -2.88665 3.90058
rclavicle 3.8117e-014 4.57205e-015
rhumerus -51.1213 -41.757 -64.3419
rradius 28.8668
rwrist 6.69517
rhand -7.52314 40.8278
rfingers 7.12502
rthumb 18.3676 11.6749
lclavicle 3.8117e-014 4.57205e-015
lhumerus -49.5074 28.4785 69.6613
lradius 39.4936
lwrist -16.7535
lhand -33.5138 49.1398
lfingers 7.12502
lthumb -6.71023 79.0134
rfemur -7.88675 -1.61704 19.539
rtibia 23.5015
rfoot -27.2921 -10.9569
rtoes -11.4861
lfemur -26.1404 -4.2967 -21.7096
ltibia 36.1874
lfoot -18.4697 8.66752
ltoes -19.1428
9
root 19.9588 15.995 -0.881389 -135.849 -85.5556 141.326
lowerback -0.624086 4.11448 -2.93427
upperback -5.27176 5.24473 -1.83393
thorax -5.20042 2.6449 -0.4714
lowerneck -4.28897 -4.42351 -6.86547
upperneck 5.75769 -6.21507 10.0514
head 2.93866 -2.93852 3.90224
rclavicle 6.26917e-014 -3.97569e-015
rhumerus -51.5029 -41.6363 -64.1313
rradius 29.089
rwrist 5.79929
rhand -7.34053 40.5632
rfingers 7.12502
rthumb 18.5433 11.427
lclavicle 6.26917e-014 -3.97569e-015
lhumerus -49.4402 28.3368 69.8879
lradius 39.4773
lwrist -16.6385
lhand -33.4115 48.8754
lfingers 7.12502
lthumb -6.61148 78.7522
rfemur -7.75857 -1.18286 19.1093
rtibia 23.8141
rfoot -27.4851 -11.768
rtoes -13.062
lfemur -25.7742 -4.15724 -22.2823
ltibia 36.0094
lfoot -18.7168 8.23249
ltoes -18.3603
10
root 19.8744 15.9905 -0.830144 -133.366 -85.4011 138.854
lowerback -1.01113 4.12659 -3.22336
upperback -5.25555 5.26523 -1.87817
thorax -4.98794 2.66431 -0.327579
lowerneck -4.23975 -4.4649 -6.89352
upperneck 5.81405 -6.27328 10.015
head 2.95194 -2.96974 3.89332
rclavicle -9.00992e-014 1.98785e-015
rhumerus -51.6314 -41.3312 -64.132
rradius 29.3656
rwrist 4.74303
rhand -7.19207 40.2416
rfingers 7.12502
rthumb 18.6861 11.1191
lclavicle -9.00992e-014 1.98785e-015
lhumerus -49.3075 28.1355 70.276
lradius 39.5042
lwrist -16.4831
lhand -33.4686 48.4825
lfingers 7.12502
lthumb -6.66657 78.3575
rfemur -7.63133 -0.673595 18.6677
rtibia 24.1798
rfoot -27.8196 -12.3778
rtoes -13.1979
lfemur -25.3533 -3.9684 -22.852
ltibia 35.8413
lfoot -19.0088 7.94539
ltoes -17.8954
11
root 19.7909 15.9844 -0.775756 -131.6 -85.2345 136.991
lowerback -1.27305 4.16664 -3.45501
upperback -5.22574 5.32301 -1.92039
thorax -4.82834 2.69992 -0.223788
lowerneck -4.27304 -4.49057 -6.86847
upperneck 5.99167 -6.314 9.91505
head 3.00976 -2.98936 3.85469
rclavicle 4.50744e-014 4.77083e-015
rhumerus -51.8208 -41.0079 -64.1151
rradius 29.6897
rwrist 3.91819
rhand -7.1334 39.94
rfingers 7.12502
rthumb 18.7425 10.8229
lclavicle 4.50744e-014 4.77083e-015
lhumerus -49.1587 27.8725 70.6812
lradius 39.5228
lwrist -16.4304
lhand -33.5198 48.67
lfingers 7.12502
lthumb -6.71606 78.5435
rfemur -7.40784 -0.337385 18.2371
rtibia 24.5707
rfoot -28.2074 -12.8894
rtoes -13.4995
lfemur -24.8068 -3.71392 -23.4272
ltibia 35.6582
lfoot -19.2963 7.70157
ltoes -17.7715
12
root 19.7066 15.9781 -0.720493 -130.681 -85.0506 135.947
lowerback -1.50398 4.20722 -3.68601
upperback -5.19571 5.38335 -1.92917
thorax -4.69001 2.73752 -0.088434
lowerneck -4.47805 -4.52991 -6.8416
upperneck 6.45864 -6.38014 9.73546
head 3.18182 -3.0161 3.78448
rclavicle 4.25399e-014 -2.60408e-014
rhumerus -52.0267 -40.6474 -64.0614
rradius 30.0078
rwrist 3.3475
rhand -7.01014 39.6181
rfingers 7.12502
rthumb 18.8611 10.5126
lclavicle 4.25399e-014 -2.60408e-014
lhumerus -49.0515 27.7019 71.0323
lradius 39.4883
lwrist -16.4982
lhand -33.7012 49.2084
lfingers 7.12502
lthumb -6.89111 79.0762
rfemur -7.13546 -0.0282861 17.8148
rtibia 24.9669
rfoot -28.4586 -13.1426
rtoes -12.4318
lfemur -24.2134 -3.35303 -23.9661
ltibia 35.4576
lfoot -19.6235 7.38992
ltoes -17.3681
13
root 19.623 15.9729 -0.66385 -130.078 -84.721 135.149
lowerback -1.68687 4.26826 -4.01624
upperback -5.10623 5.47275 -1.93569
thorax -4.52851 2.79311 0.10184
lowerneck -4.72771 -4.59505 -6.82488
upperneck 6.93335 -6.47298 9.51107
head 3.36502 -3.05698 3.69951
rclavicle 3.29237e-014 6.55989e-015
rhumerus -52.0977 -40.2041 -64.1006
rradius 30.3229
rwrist 2.82825
rhand -6.79835 39.4283
rfingers 7.12502
rthumb 19.0647 10.3427
lclavicle 3.29237e-014 6.55989e-015
lhumerus -48.8712 27.7006 71.3712
lradius 39.3602
lwrist -16.6709
lhand -33.8765 49.1155
lfingers 7.12502
lthumb -7.06035 78.9778
rfemur -6.78719 0.298763 17.241
rtibia 25.381
rfoot -28.5807 -13.074
rtoes -11.0836
lfemur -23.5322 -2.92006 -24.5982
ltibia 35.2487
lfoot -20.0255 7.07015
ltoes -16.5802
